#Comment line ignore any data following # character 
#Hierarchical Translation and Rotation (.htr) file 
[Header]	
#Header keywords are followed by a single value 
FileType HTR		#Single word string
DataType HTRS		#Translation followed by rotation and scale data
FileVersion 1		#integer
NumSegments 84		#integer
NumFrames 2		#integer
DataFrameRate 30		#integer, data frame rate in this file
EulerRotationOrder ZYX
CalibrationUnits mm
RotationUnits Degrees
GlobalAxisofGravity Y
BoneLengthAxis Y
ScaleFactor 1.00
[SegmentNames&Hierarchy]
#CHILD	PARENT
MASTER GLOBAL
root MASTER
chest root
L_mid_tent01 root
R_mid_tent01 root
spine01 root
Bip01_Neck chest
L_humerus chest
R_humerus chest
weapon_bone chest
Bip01_Head Bip01_Neck
eye_left_bone Bip01_Head
eye_right_bone Bip01_Head
L_forearm L_humerus
L_front_hand L_forearm
L_weapon_bone L_forearm
L_front_hand01_01 L_front_hand
L_front_hand02_01 L_front_hand
L_front_hand03_01 L_front_hand
L_front_hand01_02 L_front_hand01_01
L_front_hand02_02 L_front_hand02_01
L_front_hand03_02 L_front_hand03_01
R_forearm R_humerus
R_front_hand R_forearm
R_weapon_bone R_forearm
R_front_hand01_01 R_front_hand
R_front_hand02_01 R_front_hand
R_front_hand03_01 R_front_hand
R_front_hand01_02 R_front_hand01_01
R_front_hand02_02 R_front_hand02_01
R_front_hand03_02 R_front_hand03_01
null_rope01_connect L_mid_tent01
Rope1_Seg01 null_rope01_connect
Rope1_Seg02 Rope1_Seg01
Rope1_Seg03 Rope1_Seg02
Rope1_Seg04 Rope1_Seg03
Rope1_Seg05 Rope1_Seg04
Rope1_Seg06 Rope1_Seg05
Rope1_Seg07 Rope1_Seg06
Rope1_Seg09 Rope1_Seg07
L_mid_hand01 Rope1_Seg09
L_mid_hand02 Rope1_Seg09
L_mid_hand03 Rope1_Seg09
null_rope02_connect R_mid_tent01
Rope2_Seg01 null_rope02_connect
Rope2_Seg02 Rope2_Seg01
Rope2_Seg03 Rope2_Seg02
Rope2_Seg04 Rope2_Seg03
Rope2_Seg05 Rope2_Seg04
Rope2_Seg06 Rope2_Seg05
Rope2_Seg07 Rope2_Seg06
Rope2_Seg09 Rope2_Seg07
R_mid_hand01 Rope2_Seg09
R_mid_hand02 Rope2_Seg09
R_mid_hand03 Rope2_Seg09
spine02 spine01
spine03 spine02
pelvis spine03
null_rope03_connect pelvis
null_rope04_connect pelvis
Rope3_Seg01 null_rope03_connect
Rope3_Seg02 Rope3_Seg01
Rope3_Seg03 Rope3_Seg02
Rope3_Seg04 Rope3_Seg03
Rope3_Seg05 Rope3_Seg04
Rope3_Seg06 Rope3_Seg05
Rope3_Seg07 Rope3_Seg06
Rope3_Seg08 Rope3_Seg07
Rope3_Seg09 Rope3_Seg08
R_rear_hand01 Rope3_Seg09
R_rear_hand02 Rope3_Seg09
R_rear_hand03 Rope3_Seg09
Rope4_Seg01 null_rope04_connect
Rope4_Seg02 Rope4_Seg01
Rope4_Seg03 Rope4_Seg02
Rope4_Seg04 Rope4_Seg03
Rope4_Seg05 Rope4_Seg04
Rope4_Seg06 Rope4_Seg05
Rope4_Seg07 Rope4_Seg06
Rope4_Seg08 Rope4_Seg07
Rope4_Seg09 Rope4_Seg08
L_rear_hand01 Rope4_Seg09
L_rear_hand02 Rope4_Seg09
L_rear_hand03 Rope4_Seg09
[BasePosition]
#SegmentName Tx, Ty, Tz, Rx, Ry, Rz, BoneLength
MASTER 0.000000 0.000000 0.000000 -90.000000 0.000000 0.000000 10.000000 
root 0.000000 0.000000 0.000000 0.000000 0.000000 0.000000 10.000000 
chest 0.000000 0.000000 0.000000 0.000000 0.000000 0.000000 10.000000 
L_mid_tent01 0.000000 0.000000 0.000000 0.000000 0.000000 0.000000 10.000000 
R_mid_tent01 0.000000 0.000000 0.000000 0.000000 0.000000 0.000000 10.000000 
spine01 0.000000 0.000000 0.000000 0.000000 0.000000 0.000000 10.000000 
Bip01_Neck 0.000000 0.000000 0.000000 0.000000 0.000000 0.000000 10.000000 
L_humerus 0.000000 0.000000 0.000000 0.000000 0.000000 0.000000 10.000000 
R_humerus 0.000000 0.000000 0.000000 0.000000 0.000000 0.000000 10.000000 
weapon_bone 0.000000 0.000000 0.000000 0.000000 0.000000 0.000000 10.000000 
Bip01_Head 0.000000 0.000000 0.000000 0.000000 0.000000 0.000000 10.000000 
eye_left_bone 0.000000 0.000000 0.000000 0.000000 0.000000 0.000000 10.000000 
eye_right_bone 0.000000 0.000000 0.000000 0.000000 0.000000 0.000000 10.000000 
L_forearm 0.000000 0.000000 0.000000 0.000000 0.000000 0.000000 10.000000 
L_front_hand 0.000000 0.000000 0.000000 0.000000 0.000000 0.000000 10.000000 
L_weapon_bone 0.000000 0.000000 0.000000 0.000000 0.000000 0.000000 10.000000 
L_front_hand01_01 0.000000 0.000000 0.000000 0.000000 0.000000 0.000000 10.000000 
L_front_hand02_01 0.000000 0.000000 0.000000 0.000000 0.000000 0.000000 10.000000 
L_front_hand03_01 0.000000 0.000000 0.000000 0.000000 0.000000 0.000000 10.000000 
L_front_hand01_02 0.000000 0.000000 0.000000 0.000000 0.000000 0.000000 10.000000 
L_front_hand02_02 0.000000 0.000000 0.000000 0.000000 0.000000 0.000000 10.000000 
L_front_hand03_02 0.000000 0.000000 0.000000 0.000000 0.000000 0.000000 10.000000 
R_forearm 0.000000 0.000000 0.000000 0.000000 0.000000 0.000000 10.000000 
R_front_hand 0.000000 0.000000 0.000000 0.000000 0.000000 0.000000 10.000000 
R_weapon_bone 0.000000 0.000000 0.000000 0.000000 0.000000 0.000000 10.000000 
R_front_hand01_01 0.000000 0.000000 0.000000 0.000000 0.000000 0.000000 10.000000 
R_front_hand02_01 0.000000 0.000000 0.000000 0.000000 0.000000 0.000000 10.000000 
R_front_hand03_01 0.000000 0.000000 0.000000 0.000000 0.000000 0.000000 10.000000 
R_front_hand01_02 0.000000 0.000000 0.000000 0.000000 0.000000 0.000000 10.000000 
R_front_hand02_02 0.000000 0.000000 0.000000 0.000000 0.000000 0.000000 10.000000 
R_front_hand03_02 0.000000 0.000000 0.000000 0.000000 0.000000 0.000000 10.000000 
null_rope01_connect 0.000000 0.000000 0.000000 0.000000 0.000000 0.000000 10.000000 
Rope1_Seg01 0.000000 0.000000 0.000000 0.000000 0.000000 0.000000 10.000000 
Rope1_Seg02 0.000000 0.000000 0.000000 0.000000 0.000000 0.000000 10.000000 
Rope1_Seg03 0.000000 0.000000 0.000000 0.000000 0.000000 0.000000 10.000000 
Rope1_Seg04 0.000000 0.000000 0.000000 0.000000 0.000000 0.000000 10.000000 
Rope1_Seg05 0.000000 0.000000 0.000000 0.000000 0.000000 0.000000 10.000000 
Rope1_Seg06 0.000000 0.000000 0.000000 0.000000 0.000000 0.000000 10.000000 
Rope1_Seg07 0.000000 0.000000 0.000000 0.000000 0.000000 0.000000 10.000000 
Rope1_Seg09 0.000000 0.000000 0.000000 0.000000 0.000000 0.000000 10.000000 
L_mid_hand01 0.000000 0.000000 0.000000 0.000000 0.000000 0.000000 10.000000 
L_mid_hand02 0.000000 0.000000 0.000000 0.000000 0.000000 0.000000 10.000000 
L_mid_hand03 0.000000 0.000000 0.000000 0.000000 0.000000 0.000000 10.000000 
null_rope02_connect 0.000000 0.000000 0.000000 0.000000 0.000000 0.000000 10.000000 
Rope2_Seg01 0.000000 0.000000 0.000000 0.000000 0.000000 0.000000 10.000000 
Rope2_Seg02 0.000000 0.000000 0.000000 0.000000 0.000000 0.000000 10.000000 
Rope2_Seg03 0.000000 0.000000 0.000000 0.000000 0.000000 0.000000 10.000000 
Rope2_Seg04 0.000000 0.000000 0.000000 0.000000 0.000000 0.000000 10.000000 
Rope2_Seg05 0.000000 0.000000 0.000000 0.000000 0.000000 0.000000 10.000000 
Rope2_Seg06 0.000000 0.000000 0.000000 0.000000 0.000000 0.000000 10.000000 
Rope2_Seg07 0.000000 0.000000 0.000000 0.000000 0.000000 0.000000 10.000000 
Rope2_Seg09 0.000000 0.000000 0.000000 0.000000 0.000000 0.000000 10.000000 
R_mid_hand01 0.000000 0.000000 0.000000 0.000000 0.000000 0.000000 10.000000 
R_mid_hand02 0.000000 0.000000 0.000000 0.000000 0.000000 0.000000 10.000000 
R_mid_hand03 0.000000 0.000000 0.000000 0.000000 0.000000 0.000000 10.000000 
spine02 0.000000 0.000000 0.000000 0.000000 0.000000 0.000000 10.000000 
spine03 0.000000 0.000000 0.000000 0.000000 0.000000 0.000000 10.000000 
pelvis 0.000000 0.000000 0.000000 0.000000 0.000000 0.000000 10.000000 
null_rope03_connect 0.000000 0.000000 0.000000 0.000000 0.000000 0.000000 10.000000 
null_rope04_connect 0.000000 0.000000 0.000000 0.000000 0.000000 0.000000 10.000000 
Rope3_Seg01 0.000000 0.000000 0.000000 0.000000 0.000000 0.000000 10.000000 
Rope3_Seg02 0.000000 0.000000 0.000000 0.000000 0.000000 0.000000 10.000000 
Rope3_Seg03 0.000000 0.000000 0.000000 0.000000 0.000000 0.000000 10.000000 
Rope3_Seg04 0.000000 0.000000 0.000000 0.000000 0.000000 0.000000 10.000000 
Rope3_Seg05 0.000000 0.000000 0.000000 0.000000 0.000000 0.000000 10.000000 
Rope3_Seg06 0.000000 0.000000 0.000000 0.000000 0.000000 0.000000 10.000000 
Rope3_Seg07 0.000000 0.000000 0.000000 0.000000 0.000000 0.000000 10.000000 
Rope3_Seg08 0.000000 0.000000 0.000000 0.000000 0.000000 0.000000 10.000000 
Rope3_Seg09 0.000000 0.000000 0.000000 0.000000 0.000000 0.000000 10.000000 
R_rear_hand01 0.000000 0.000000 0.000000 0.000000 0.000000 0.000000 10.000000 
R_rear_hand02 0.000000 0.000000 0.000000 0.000000 0.000000 0.000000 10.000000 
R_rear_hand03 0.000000 0.000000 0.000000 0.000000 0.000000 0.000000 10.000000 
Rope4_Seg01 0.000000 0.000000 0.000000 0.000000 0.000000 0.000000 10.000000 
Rope4_Seg02 0.000000 0.000000 0.000000 0.000000 0.000000 0.000000 10.000000 
Rope4_Seg03 0.000000 0.000000 0.000000 0.000000 0.000000 0.000000 10.000000 
Rope4_Seg04 0.000000 0.000000 0.000000 0.000000 0.000000 0.000000 10.000000 
Rope4_Seg05 0.000000 0.000000 0.000000 0.000000 0.000000 0.000000 10.000000 
Rope4_Seg06 0.000000 0.000000 0.000000 0.000000 0.000000 0.000000 10.000000 
Rope4_Seg07 0.000000 0.000000 0.000000 0.000000 0.000000 0.000000 10.000000 
Rope4_Seg08 0.000000 0.000000 0.000000 0.000000 0.000000 0.000000 10.000000 
Rope4_Seg09 0.000000 0.000000 0.000000 0.000000 0.000000 0.000000 10.000000 
L_rear_hand01 0.000000 0.000000 0.000000 0.000000 0.000000 0.000000 10.000000 
L_rear_hand02 0.000000 0.000000 0.000000 0.000000 0.000000 0.000000 10.000000 
L_rear_hand03 0.000000 0.000000 0.000000 0.000000 0.000000 0.000000 10.000000 
#Beginning of Data. Separated by tabs
#Fr	Tx	Ty	Tz	Rx	Ry	Rz	SF
[MASTER]
17 -1468.453491 3159.589844 -1188.862427 0.001660 0.001660 0.001660 3681.406982
18 -1473.343994 3290.089600 -1267.121704 0.001660 0.001660 0.001660 3821.129395
[root]
17 49.985500 -151.715088 934.348755 -87.673019 -31.916573 -88.530205 947.904846
18 35.084076 -119.739067 1037.698364 -93.023346 -30.845791 -88.528824 1045.172852
[chest]
17 -84.512650 -34.090519 0.000000 -6.503244 -5.628178 177.545654 91.129311
18 -84.512650 -34.090519 0.000000 -8.229033 -4.561095 178.674088 91.129311
[L_mid_tent01]
17 27.299112 22.179178 -249.918793 -14.476770 24.008776 41.985630 252.381760
18 27.299126 22.179167 -249.918793 -12.625820 26.938566 46.559475 252.381775
[R_mid_tent01]
17 23.228794 24.509907 226.238495 168.319504 -13.037716 31.493641 228.744751
18 23.228794 24.509907 226.238495 170.077881 -16.738348 37.041946 228.744751
[spine01]
17 -0.361383 -0.195265 0.000000 0.001764 0.001549 7.435294 0.410763
18 -0.361383 -0.195265 0.000000 0.001791 0.001517 9.453695 0.410763
[Bip01_Neck]
17 165.484543 71.581718 0.000119 176.643677 -1.657967 43.431911 180.302734
18 165.484543 71.581718 0.000119 176.643677 -1.657967 43.431911 180.302734
[L_humerus]
17 -13.983130 -135.272980 -120.471481 157.988190 34.767914 -139.757263 181.680161
18 -13.983130 -135.272980 -120.471481 153.627426 44.961418 -139.665100 181.680161
[R_humerus]
17 -13.983309 -135.273102 125.287651 -164.304398 -36.024006 -137.100815 184.909012
18 -13.983309 -135.273102 125.287651 -160.965332 -46.318245 -134.533432 184.909012
[weapon_bone]
17 235.964890 -300.705902 0.000000 0.000000 -89.951546 -128.212341 382.234833
18 235.964890 -300.705902 0.000000 0.000000 -89.951546 -128.212341 382.234833
[Bip01_Head]
17 213.420364 185.781082 10.931494 -2.581834 3.194839 -43.600582 283.164886
18 213.426819 185.763016 11.164703 -2.018207 3.285440 -43.812168 283.166992
[eye_left_bone]
17 -24.626970 125.451866 -64.772606 0.000000 -90.000000 -99.840431 143.318359
18 -24.626970 125.451866 -64.772606 0.000000 -90.000000 -99.840431 143.318359
[eye_right_bone]
17 -24.626970 125.451866 64.327362 0.000000 -89.965736 80.156380 143.117676
18 -24.626970 125.451866 64.327362 0.000000 -89.965736 80.156380 143.117676
[L_forearm]
17 322.776093 0.000000 -0.000119 0.000403 -0.002312 -109.758911 322.776093
18 322.776093 0.000000 -0.000119 0.000401 -0.002313 -109.680283 322.776093
[L_front_hand]
17 241.149185 -0.042021 -3.300071 -178.667953 -1.835447 -27.422350 241.171753
18 241.149185 -0.042021 -3.300071 -178.667953 -1.835447 -27.422342 241.171753
[L_weapon_bone]
17 156.183838 0.000000 0.000000 0.000014 0.000007 0.000001 156.183838
18 156.183838 0.000000 0.000000 0.000014 0.000007 0.000001 156.183838
[L_front_hand01_01]
17 86.095154 20.947098 -0.655860 -0.366594 -0.477154 75.385574 88.609184
18 86.095154 20.947098 -0.655860 -0.366594 -0.477154 75.385574 88.609184
[L_front_hand02_01]
17 86.935165 -11.437475 24.513514 154.399796 -59.883835 -61.369587 91.046425
18 86.935165 -11.437475 24.513514 154.399796 -59.883835 -61.369587 91.046425
[L_front_hand03_01]
17 86.637497 -14.123976 -20.424902 -153.913849 58.118122 -62.702866 90.126129
18 86.637497 -14.123976 -20.424902 -153.913849 58.118122 -62.702866 90.126129
[L_front_hand01_02]
17 71.020905 -0.000179 0.000030 0.000334 -0.002323 -106.373039 71.020905
18 71.020905 -0.000179 0.000030 0.000334 -0.002323 -106.373985 71.020905
[L_front_hand02_02]
17 71.020927 -0.000119 0.000060 0.000334 -0.002323 -106.373039 71.020927
18 71.020927 -0.000119 0.000060 0.000334 -0.002323 -106.373985 71.020927
[L_front_hand03_02]
17 71.020905 -0.000060 0.000060 0.000334 -0.002323 -106.373039 71.020905
18 71.020905 -0.000060 0.000060 0.000334 -0.002323 -106.373985 71.020905
[R_forearm]
17 322.776428 -0.000060 0.000030 0.201905 0.065767 -108.408661 322.776428
18 322.776428 -0.000060 0.000030 0.201952 0.065624 -108.327339 322.776428
[R_front_hand]
17 238.847015 -0.006795 2.210259 -2.635298 -10.645461 -26.312506 238.857239
18 238.847015 -0.006795 2.210259 -2.635298 -10.645461 -26.312506 238.857239
[R_weapon_bone]
17 155.664093 0.002503 -0.000030 0.003487 0.001180 -90.988930 155.664078
18 155.664093 0.002503 -0.000030 0.003487 0.001180 -90.988930 155.664078
[R_front_hand01_01]
17 87.624611 14.231146 22.918642 -154.633484 -59.950619 61.746037 91.683487
18 87.624611 14.231146 22.918642 -154.633499 -59.950619 61.746044 91.683487
[R_front_hand02_01]
17 89.356956 14.367283 -19.491137 154.602661 58.302849 63.744389 92.579636
18 89.356956 14.367283 -19.491137 154.602661 58.302849 63.744389 92.579636
[R_front_hand03_01]
17 87.286232 -22.307278 -0.143439 0.162155 -0.423168 -75.767906 90.091743
18 87.286232 -22.307278 -0.143439 0.162155 -0.423168 -75.767921 90.091743
[R_front_hand01_02]
17 71.020905 0.000060 0.000119 0.002323 -0.000334 106.381714 71.020905
18 71.020905 0.000060 0.000119 0.002323 -0.000334 106.381714 71.020905
[R_front_hand02_02]
17 71.020844 -0.000030 -0.000119 0.002323 -0.000334 106.381714 71.020836
18 71.020844 -0.000030 -0.000119 0.002323 -0.000334 106.381714 71.020836
[R_front_hand03_02]
17 71.020905 0.000000 0.000030 0.002323 -0.000334 106.381714 71.020905
18 71.020905 0.000000 0.000030 0.002323 -0.000334 106.381714 71.020905
[null_rope01_connect]
17 328.732483 0.000000 -0.000238 -133.289658 -65.515373 -149.806091 328.732483
18 328.732483 0.000000 -0.000238 -135.088577 -58.603344 -153.128647 328.732483
[Rope1_Seg01]
17 0.000041 -0.000047 0.000106 3.594535 -2.404415 -144.372818 0.000123
18 0.000046 -0.000046 0.000113 1.842441 -6.300085 -141.663010 0.000130
[Rope1_Seg02]
17 139.999863 -0.000179 0.000000 2.437649 7.263787 -4.836620 139.999863
18 139.999863 -0.000179 0.000000 2.609792 6.846961 -4.730095 139.999863
[Rope1_Seg03]
17 139.999924 0.000060 -0.000060 0.401643 6.030845 -5.674985 139.999924
18 139.999924 0.000060 -0.000060 0.490700 6.490024 -6.155702 139.999924
[Rope1_Seg04]
17 139.999924 -0.000060 -0.000119 -1.538986 5.261200 -8.449244 139.999924
18 139.999924 -0.000060 -0.000119 -1.470650 6.753121 -9.430106 139.999924
[Rope1_Seg05]
17 139.999832 0.000119 -0.000060 2.799231 2.817863 3.455897 139.999832
18 139.999832 0.000119 -0.000060 3.741396 1.846832 5.542581 139.999832
[Rope1_Seg06]
17 139.999954 0.000119 -0.000060 7.927268 1.650005 13.248882 139.999954
18 139.999954 0.000119 -0.000060 8.272627 -0.623421 13.620342 139.999954
[Rope1_Seg07]
17 139.999985 0.000060 0.000000 7.455187 2.653881 8.639784 139.999985
18 139.999985 0.000060 0.000000 5.971972 1.157780 6.260860 139.999985
[Rope1_Seg09]
17 121.602913 0.000119 -0.000089 -89.793175 -1.359789 0.847147 121.602913
18 121.602913 0.000119 -0.000089 -89.793175 -1.359789 0.847147 121.602913
[L_mid_hand01]
17 103.859421 1.038730 8.195221 130.544373 -67.584534 -38.866943 104.187431
18 103.859421 1.038730 8.195221 130.544373 -67.584534 -38.866943 104.187431
[L_mid_hand02]
17 105.572853 -4.139662 -10.864139 -168.923172 43.409309 -73.498886 106.211075
18 105.572853 -4.139662 -10.864139 -168.923172 43.409309 -73.498886 106.211075
[L_mid_hand03]
17 104.641464 17.579376 -3.913581 -6.012627 17.808174 74.893669 106.179977
18 104.641464 17.579376 -3.913581 -6.012627 17.808174 74.893669 106.179977
[null_rope02_connect]
17 328.732849 0.000179 -0.000119 -57.076946 71.641342 30.683880 328.732849
18 328.732849 0.000179 -0.000119 -58.497776 69.454704 36.610851 328.732849
[Rope2_Seg01]
17 0.000017 0.000259 0.000000 -45.345520 -6.311193 -86.959930 0.000259
18 0.000015 0.000265 0.000000 -50.098236 -10.669711 -94.911133 0.000266
[Rope2_Seg02]
17 139.999741 -0.000060 -0.000119 -12.186628 0.046648 -16.176983 139.999756
18 139.999741 -0.000060 -0.000119 -5.876575 1.673406 -9.723687 139.999756
[Rope2_Seg03]
17 140.000107 0.000030 0.000000 -8.225149 -6.238671 -9.707687 140.000107
18 140.000107 0.000030 0.000000 -7.372334 -9.717105 -7.529650 140.000107
[Rope2_Seg04]
17 139.999802 0.000000 -0.000060 12.300381 24.296061 11.488612 139.999802
18 139.999802 0.000000 -0.000060 10.501933 25.019918 8.627834 139.999802
[Rope2_Seg05]
17 139.999985 -0.000060 0.000119 4.187836 24.055346 8.307240 139.999985
18 139.999985 -0.000060 0.000119 3.112523 25.972425 6.210299 139.999985
[Rope2_Seg06]
17 139.999893 -0.000030 -0.000119 -0.283485 7.187551 1.693552 139.999893
18 139.999893 -0.000030 -0.000119 -0.555485 7.506346 1.253908 139.999893
[Rope2_Seg07]
17 139.999893 0.000060 -0.000060 -0.393645 3.858307 0.898939 139.999893
18 139.999893 0.000060 -0.000060 -0.516307 3.818482 0.642600 139.999893
[Rope2_Seg09]
17 121.338966 0.000089 -0.000060 33.793236 -1.359788 -0.847141 121.338966
18 121.338966 0.000089 -0.000060 33.793236 -1.359788 -0.847141 121.338966
[R_mid_hand01]
17 104.680779 11.144459 -10.335981 -16.212059 45.237247 70.462852 105.778534
18 104.680779 11.144459 -10.335981 -16.212063 45.237247 70.462852 105.778534
[R_mid_hand02]
17 104.070427 2.443552 8.231699 49.067371 -67.749794 39.286461 104.424065
18 104.070427 2.443552 8.231699 49.067368 -67.749771 39.286453 104.424065
[R_mid_hand03]
17 106.028137 -11.221827 -5.996406 -177.101105 15.551026 -76.585571 106.788818
18 106.028137 -11.221827 -5.996406 -177.101105 15.551026 -76.585571 106.788818
[spine02]
17 129.756927 0.001550 0.000119 0.392141 -4.041494 -13.406050 129.756927
18 129.756927 0.001550 0.000119 0.382758 -4.042490 -13.279483 129.756927
[spine03]
17 78.613731 0.081407 -4.898892 1.929623 3.814190 16.978733 78.766258
18 78.613716 0.081439 -4.898884 1.924899 3.816652 16.906494 78.766243
[pelvis]
17 169.435242 0.051022 0.000000 0.028356 -0.189226 -13.088398 169.435257
18 169.435242 0.051022 0.000000 0.027081 -0.189413 -12.317080 169.435257
[null_rope03_connect]
17 -1.257226 -2.466202 137.391083 49.838421 -85.517731 74.119965 137.418976
18 -1.257226 -2.466202 137.391083 160.441177 -88.247658 -40.333050 137.418976
[null_rope04_connect]
17 -1.259640 -2.480268 -137.844437 49.838421 -85.517731 74.119965 137.872513
18 -1.259640 -2.480268 -137.844437 160.441177 -88.247658 -40.333050 137.872513
[Rope3_Seg01]
17 0.000000 0.000000 0.000000 14.183609 5.275949 -98.601067 0.000000
18 0.000000 0.000000 0.000000 12.782851 8.277550 -100.503418 0.000000
[Rope3_Seg02]
17 139.999924 -0.000119 0.000060 2.897465 -8.008898 7.531353 139.999924
18 139.999924 -0.000119 0.000060 2.668795 -6.552938 7.162629 139.999924
[Rope3_Seg03]
17 139.999924 -0.000119 0.000119 2.610342 -9.013828 9.454032 139.999924
18 139.999924 -0.000119 0.000119 2.427133 -7.691242 9.328946 139.999924
[Rope3_Seg04]
17 139.999924 0.000119 0.000000 1.759302 -10.198129 11.814431 139.999924
18 139.999924 0.000119 0.000000 1.502816 -9.833665 13.221981 139.999924
[Rope3_Seg05]
17 139.999924 -0.000238 0.000060 -0.118189 1.420231 -0.890109 139.999924
18 139.999924 -0.000238 0.000060 -0.136460 1.468893 -1.513637 139.999924
[Rope3_Seg06]
17 139.999893 -0.000119 -0.000060 -2.266540 8.241914 -8.958470 139.999893
18 139.999893 -0.000119 -0.000060 -2.217475 7.557818 -10.141666 139.999893
[Rope3_Seg07]
17 139.999771 0.000060 -0.000119 -0.839519 4.268345 -4.098765 139.999771
18 139.999771 0.000060 -0.000119 -0.763737 3.522310 -4.278193 139.999771
[Rope3_Seg08]
17 139.999985 -0.000060 0.000000 -0.388510 2.906652 -2.699777 139.999985
18 139.999985 -0.000060 0.000000 -0.346519 2.333475 -2.760991 139.999985
[Rope3_Seg09]
17 90.185997 -0.000179 -0.000060 89.793228 -1.359877 -0.847183 90.185997
18 90.185997 -0.000179 -0.000060 89.793228 -1.359877 -0.847183 90.185997
[R_rear_hand01]
17 103.366196 -6.073594 -10.757982 -177.714203 24.565960 -73.910950 104.101845
18 103.366196 -6.073594 -10.757982 -177.714203 24.565960 -73.910950 104.101845
[R_rear_hand02]
17 100.509819 12.039542 -7.992327 -12.874827 36.868492 72.167221 101.543350
18 100.509819 12.039542 -7.992327 -12.874829 36.868488 72.167213 101.543350
[R_rear_hand03]
17 101.539970 5.215704 5.435467 71.484581 -71.816628 21.513813 101.819031
18 101.539970 5.215704 5.435467 71.484581 -71.816628 21.513813 101.819031
[Rope4_Seg01]
17 -0.000032 -0.000224 0.000000 -98.761337 2.330350 -105.810081 0.000226
18 -0.000033 -0.000236 0.000000 -98.659050 1.245354 -110.491280 0.000238
[Rope4_Seg02]
17 139.999985 0.000060 0.000119 0.193855 8.089592 5.451427 139.999985
18 139.999985 0.000060 0.000119 0.043698 8.844819 6.382521 139.999985
[Rope4_Seg03]
17 139.999924 0.000000 -0.000238 0.190217 10.212308 5.999721 139.999924
18 139.999924 0.000000 -0.000238 -0.235075 10.195607 6.817057 139.999924
[Rope4_Seg04]
17 139.999985 0.000000 0.000119 0.218185 12.513771 6.830873 139.999985
18 139.999985 0.000000 0.000119 -0.004663 12.277597 6.789965 139.999985
[Rope4_Seg05]
17 139.999802 -0.000060 -0.000119 -5.767787 0.565119 7.431249 139.999802
18 139.999802 -0.000060 -0.000119 -6.342631 2.646758 7.500639 139.999802
[Rope4_Seg06]
17 139.999924 0.000000 0.000060 -3.679382 -2.038487 3.531989 139.999924
18 139.999924 0.000000 0.000060 -5.247428 -2.383319 3.845317 139.999924
[Rope4_Seg07]
17 139.999802 0.000000 0.000000 -1.793660 -0.241299 2.176991 139.999802
18 139.999802 0.000000 0.000000 -2.468295 -0.320741 2.259533 139.999802
[Rope4_Seg08]
17 139.999924 0.000000 0.000119 -2.641856 -0.185996 1.302092 139.999924
18 139.999924 0.000000 0.000119 -3.032862 -0.190000 1.357368 139.999924
[Rope4_Seg09]
17 90.185791 0.000060 0.000060 -135.617828 2.228885 0.850567 90.185791
18 90.185791 0.000060 0.000060 -135.617828 2.228885 0.850567 90.185791
[L_rear_hand01]
17 101.696655 -8.392275 -7.654577 -12.874829 -36.868488 107.832764 102.329041
18 101.696655 -8.392275 -7.654577 -12.874829 -36.868488 107.832764 102.329041
[L_rear_hand02]
17 102.726799 -1.568258 5.773216 71.484581 71.816628 158.486160 102.900848
18 102.726799 -1.568258 5.773216 71.484581 71.816628 158.486160 102.900848
[L_rear_hand03]
17 104.552910 9.721220 -10.420293 -177.714203 -24.565960 -106.089035 105.519653
18 104.552910 9.721220 -10.420293 -177.714203 -24.565960 -106.089035 105.519653
